<svg width="13" height="16" viewBox="0 0 13 16" fill="none" xmlns="http://www.w3.org/2000/svg">
<path d="M9.28813 3.80437C9.39956 3.80437 9.572 3.81764 9.80547 3.84417C10.0442 3.86539 10.3148 3.92376 10.6173 4.01926C10.9197 4.11477 11.2275 4.26864 11.5405 4.48088C11.8536 4.69312 12.1428 4.99026 12.4081 5.37229C12.3815 5.38821 12.2807 5.45984 12.1056 5.58718C11.9358 5.71453 11.7422 5.90024 11.5246 6.14431C11.3071 6.38308 11.116 6.68818 10.9516 7.0596C10.7924 7.42571 10.7128 7.86345 10.7128 8.37283C10.7128 8.95649 10.8136 9.44994 11.0152 9.8532C11.2222 10.2565 11.4609 10.5828 11.7315 10.8322C12.0075 11.0815 12.2515 11.2646 12.4638 11.3813C12.6813 11.4927 12.798 11.5511 12.814 11.5564C12.8087 11.5776 12.7689 11.697 12.6946 11.9146C12.6203 12.1268 12.5036 12.4027 12.3444 12.7423C12.1905 13.0766 11.9889 13.4268 11.7395 13.7929C11.5113 14.1166 11.2752 14.427 11.0312 14.7241C10.7924 15.0212 10.5297 15.2627 10.2432 15.4484C9.962 15.6394 9.64364 15.7349 9.28813 15.7349C9.01753 15.7349 8.78672 15.7031 8.5957 15.6394C8.40469 15.5757 8.22163 15.5014 8.04653 15.4165C7.87674 15.3369 7.68838 15.2653 7.48145 15.2016C7.27451 15.138 7.01717 15.1061 6.70942 15.1061C6.30617 15.1061 5.96924 15.1565 5.69863 15.2573C5.43333 15.3635 5.1813 15.4696 4.94253 15.5757C4.70376 15.6818 4.42254 15.7349 4.09888 15.7349C3.60542 15.7349 3.17033 15.5412 2.7936 15.1539C2.42218 14.7665 2.04015 14.2996 1.64751 13.7531C1.34507 13.318 1.06916 12.8166 0.819775 12.2489C0.570394 11.6811 0.371419 11.0789 0.222852 10.4422C0.0742839 9.80544 5.02914e-08 9.16873 5.02914e-08 8.53201C5.02914e-08 7.51326 0.193669 6.65369 0.581006 5.9533C0.968343 5.2476 1.46445 4.71435 2.06934 4.35354C2.67422 3.98743 3.30298 3.80437 3.95562 3.80437C4.3005 3.80437 4.62417 3.86539 4.92661 3.98743C5.23436 4.10946 5.52088 4.2315 5.78618 4.35354C6.05148 4.47027 6.2929 4.52864 6.51045 4.52864C6.71738 4.52864 6.96146 4.47027 7.24268 4.35354C7.52389 4.2315 7.83429 4.10946 8.17388 3.98743C8.51877 3.86539 8.89019 3.80437 9.28813 3.80437ZM8.73101 2.51502C8.46571 2.83868 8.13143 3.10663 7.72817 3.31887C7.33022 3.53111 6.9535 3.63723 6.598 3.63723C6.52371 3.63723 6.45208 3.62927 6.38311 3.61335C6.3778 3.59213 6.36984 3.55499 6.35923 3.50193C6.35392 3.44887 6.35127 3.3905 6.35127 3.32683C6.35127 2.92358 6.43882 2.53093 6.61392 2.1489C6.78901 1.76687 6.99064 1.44851 7.2188 1.19382C7.50002 0.859547 7.85552 0.580982 8.2853 0.358131C8.72039 0.135279 9.13691 0.0158942 9.53486 -2.37562e-05C9.55078 0.0901781 9.55874 0.193645 9.55874 0.310377C9.55874 0.718938 9.4818 1.11689 9.32793 1.50422C9.17406 1.88626 8.97508 2.22319 8.73101 2.51502Z" fill="black"/>
</svg>
