<svg width="32" height="38" viewBox="0 0 32 38" fill="none" xmlns="http://www.w3.org/2000/svg">
<path d="M12.8579 25.4282C12.2824 25.4282 11.8465 25.2822 11.5503 24.9902C11.2541 24.7025 11.106 24.2666 11.106 23.6826V17.4111C11.106 16.8229 11.2541 16.3849 11.5503 16.0972C11.8465 15.8052 12.2824 15.6592 12.8579 15.6592H19.1357C19.7155 15.6592 20.1535 15.8052 20.4497 16.0972C20.7459 16.3849 20.894 16.8229 20.894 17.4111V23.6826C20.894 24.2666 20.7459 24.7025 20.4497 24.9902C20.1535 25.2822 19.7155 25.4282 19.1357 25.4282H12.8579ZM12.9341 24.2095H19.0659C19.2775 24.2095 19.4299 24.1629 19.5229 24.0698C19.6203 23.981 19.6689 23.8265 19.6689 23.6064V17.481C19.6689 17.2609 19.6203 17.1064 19.5229 17.0176C19.4299 16.9245 19.2775 16.8779 19.0659 16.8779H12.9341C12.7267 16.8779 12.5723 16.9245 12.4707 17.0176C12.3734 17.1064 12.3247 17.2609 12.3247 17.481V23.6064C12.3247 23.8265 12.3734 23.981 12.4707 24.0698C12.5723 24.1629 12.7267 24.2095 12.9341 24.2095ZM23.5854 17.0747C23.4627 17.0747 23.3569 17.0303 23.2681 16.9414C23.1792 16.8483 23.1348 16.7404 23.1348 16.6177V15.6147C23.1348 15.1704 23.0417 14.7769 22.8555 14.4341C22.6735 14.0871 22.4154 13.8162 22.0811 13.6216C21.751 13.4227 21.3617 13.3232 20.9131 13.3232H20.71V14.1357C20.71 14.3727 20.6296 14.5208 20.4688 14.5801C20.3079 14.6393 20.1344 14.6012 19.9482 14.4658L18.2852 13.2344C18.1497 13.1328 18.082 13.0249 18.082 12.9106C18.0863 12.7922 18.154 12.68 18.2852 12.5742L19.9482 11.3364C20.1344 11.201 20.3079 11.1629 20.4688 11.2222C20.6296 11.2772 20.71 11.4274 20.71 11.6729V12.4663H20.9131C21.5309 12.4663 22.0747 12.5996 22.5444 12.8662C23.0184 13.1286 23.3866 13.4967 23.6489 13.9707C23.9155 14.4447 24.0488 14.9927 24.0488 15.6147V16.6177C24.0488 16.7404 24.0023 16.8483 23.9092 16.9414C23.8203 17.0303 23.7124 17.0747 23.5854 17.0747Z" fill="black" fill-opacity="0.5"/>
</svg>
