<svg width="32" height="38" viewBox="0 0 32 38" fill="none" xmlns="http://www.w3.org/2000/svg">
<path d="M15.5493 16.5352C15.6001 16.3913 15.6868 16.2961 15.8096 16.2495C15.9365 16.1987 16.0614 16.1987 16.1841 16.2495C16.311 16.2961 16.3999 16.3913 16.4507 16.5352L17.7012 20.1597H14.3052L15.5493 16.5352ZM18.6597 24.7744C18.5835 24.7871 18.5094 24.7765 18.4375 24.7427C18.3698 24.7088 18.3084 24.6623 18.2534 24.603C18.2026 24.548 18.1688 24.4824 18.1519 24.4062L17.2505 20.4136L17.5171 20.5659H14.4829L14.7495 20.4136L13.8481 24.4062C13.8185 24.5332 13.7487 24.6305 13.6387 24.6982C13.5286 24.7702 13.4102 24.7956 13.2832 24.7744C13.152 24.7533 13.0483 24.6855 12.9722 24.5713C12.896 24.4613 12.8727 24.3428 12.9023 24.2158L13.8037 20.2422C13.846 20.0729 13.9307 19.9312 14.0576 19.8169C14.1846 19.6984 14.3327 19.6392 14.502 19.6392H17.4917C17.6652 19.6392 17.8154 19.6984 17.9424 19.8169C18.0693 19.9312 18.154 20.075 18.1963 20.2485L19.0913 24.2158C19.1252 24.3597 19.0892 24.4867 18.9834 24.5967C18.8776 24.7067 18.7697 24.766 18.6597 24.7744ZM15.9937 25.9741C15.0881 25.9741 14.2396 25.8027 13.4482 25.46C12.6569 25.1214 11.9608 24.6517 11.3599 24.0508C10.759 23.4541 10.2871 22.7601 9.94434 21.9688C9.60579 21.1732 9.43652 20.3226 9.43652 19.417C9.43652 18.5114 9.60579 17.6629 9.94434 16.8716C10.2871 16.076 10.759 15.3778 11.3599 14.7769C11.9608 14.1759 12.6569 13.7062 13.4482 13.3677C14.2396 13.0291 15.0881 12.8599 15.9937 12.8599C16.8993 12.8599 17.7477 13.0291 18.5391 13.3677C19.3346 13.7062 20.0329 14.1759 20.6338 14.7769C21.2347 15.3778 21.7044 16.076 22.043 16.8716C22.3857 17.6629 22.5571 18.5114 22.5571 19.417C22.5571 20.3226 22.3857 21.1732 22.043 21.9688C21.7044 22.7601 21.2347 23.4541 20.6338 24.0508C20.0329 24.6517 19.3346 25.1214 18.5391 25.46C17.7477 25.8027 16.8993 25.9741 15.9937 25.9741ZM15.9937 24.6792C16.7215 24.6792 17.4028 24.5417 18.0376 24.2666C18.6724 23.9958 19.231 23.6191 19.7134 23.1367C20.2 22.6543 20.5788 22.0957 20.8496 21.4609C21.1204 20.8262 21.2559 20.1449 21.2559 19.417C21.2559 18.6891 21.1204 18.0078 20.8496 17.373C20.5788 16.734 20.2 16.1755 19.7134 15.6973C19.231 15.2148 18.6724 14.8382 18.0376 14.5674C17.4028 14.2923 16.7215 14.1548 15.9937 14.1548C15.27 14.1548 14.5887 14.2923 13.9497 14.5674C13.3149 14.8382 12.7563 15.2148 12.2739 15.6973C11.7915 16.1755 11.4128 16.734 11.1377 17.373C10.8669 18.0078 10.7314 18.6891 10.7314 19.417C10.7314 20.1449 10.8669 20.8262 11.1377 21.4609C11.4128 22.0957 11.7915 22.6543 12.2739 23.1367C12.7563 23.6191 13.3149 23.9958 13.9497 24.2666C14.5887 24.5417 15.27 24.6792 15.9937 24.6792Z" fill="black" fill-opacity="0.5"/>
</svg>
