<svg width="12" height="15" viewBox="0 0 12 15" fill="none" xmlns="http://www.w3.org/2000/svg">
<path d="M2.08203 14.5552C1.39648 14.5552 0.878092 14.3817 0.526855 14.0347C0.175618 13.6877 0 13.1735 0 12.4922V6.27783C0 5.59652 0.175618 5.08236 0.526855 4.73535C0.878092 4.38835 1.39648 4.21484 2.08203 4.21484H3.94824V5.45898H2.1582C1.86198 5.45898 1.63558 5.53516 1.479 5.6875C1.32666 5.83984 1.25049 6.07048 1.25049 6.37939V12.3843C1.25049 12.6932 1.32666 12.9238 1.479 13.0762C1.63558 13.2327 1.86198 13.311 2.1582 13.311H9.31201C9.604 13.311 9.82829 13.2327 9.98486 13.0762C10.1457 12.9238 10.2261 12.6932 10.2261 12.3843V6.37939C10.2261 6.07048 10.1457 5.83984 9.98486 5.6875C9.82829 5.53516 9.604 5.45898 9.31201 5.45898H7.52197V4.21484H9.39453C10.0801 4.21484 10.5985 4.38835 10.9497 4.73535C11.3009 5.08236 11.4766 5.59652 11.4766 6.27783V12.4922C11.4766 13.1735 11.3009 13.6877 10.9497 14.0347C10.5985 14.3817 10.0801 14.5552 9.39453 14.5552H2.08203ZM5.73828 9.43262C5.57747 9.43262 5.43783 9.37549 5.31934 9.26123C5.20508 9.14697 5.14795 9.01367 5.14795 8.86133V2.48828L5.19873 1.54883L4.8623 1.94873L3.95459 2.91357C3.85303 3.03206 3.71973 3.09131 3.55469 3.09131C3.41081 3.09131 3.28809 3.04476 3.18652 2.95166C3.08496 2.85433 3.03418 2.73161 3.03418 2.5835C3.03418 2.44385 3.09131 2.31901 3.20557 2.20898L5.2876 0.196777C5.368 0.120605 5.44417 0.0698242 5.51611 0.0444336C5.58805 0.0148112 5.66211 0 5.73828 0C5.81445 0 5.88851 0.0148112 5.96045 0.0444336C6.03239 0.0698242 6.10645 0.120605 6.18262 0.196777L8.271 2.20898C8.38102 2.31901 8.43604 2.44385 8.43604 2.5835C8.43604 2.73161 8.38314 2.85433 8.27734 2.95166C8.17578 3.04476 8.05306 3.09131 7.90918 3.09131C7.7526 3.09131 7.62142 3.03206 7.51562 2.91357L6.61426 1.94873L6.27783 1.54883L6.32861 2.48828V8.86133C6.32861 9.01367 6.26937 9.14697 6.15088 9.26123C6.03662 9.37549 5.89909 9.43262 5.73828 9.43262Z" fill="white" fill-opacity="0.85"/>
</svg>
