<svg width="32" height="16" viewBox="0 0 32 16" fill="none" xmlns="http://www.w3.org/2000/svg">
<path d="M12.3438 15.374C11.6582 15.374 11.1398 15.2005 10.7886 14.8535C10.4373 14.5065 10.2617 13.9924 10.2617 13.311V7.09668C10.2617 6.41536 10.4373 5.9012 10.7886 5.5542C11.1398 5.20719 11.6582 5.03369 12.3438 5.03369H14.21V6.27783H12.4199C12.1237 6.27783 11.8973 6.354 11.7407 6.50635C11.5884 6.65869 11.5122 6.88932 11.5122 7.19824V13.2031C11.5122 13.512 11.5884 13.7427 11.7407 13.895C11.8973 14.0516 12.1237 14.1299 12.4199 14.1299H19.5737C19.8657 14.1299 20.09 14.0516 20.2466 13.895C20.4074 13.7427 20.4878 13.512 20.4878 13.2031V7.19824C20.4878 6.88932 20.4074 6.65869 20.2466 6.50635C20.09 6.354 19.8657 6.27783 19.5737 6.27783H17.7837V5.03369H19.6562C20.3418 5.03369 20.8602 5.20719 21.2114 5.5542C21.5627 5.9012 21.7383 6.41536 21.7383 7.09668V13.311C21.7383 13.9924 21.5627 14.5065 21.2114 14.8535C20.8602 15.2005 20.3418 15.374 19.6562 15.374H12.3438ZM16 10.2515C15.8392 10.2515 15.6995 10.1943 15.5811 10.0801C15.4668 9.96582 15.4097 9.83252 15.4097 9.68018V3.30713L15.4604 2.36768L15.124 2.76758L14.2163 3.73242C14.1147 3.85091 13.9814 3.91016 13.8164 3.91016C13.6725 3.91016 13.5498 3.86361 13.4482 3.77051C13.3467 3.67318 13.2959 3.55046 13.2959 3.40234C13.2959 3.2627 13.353 3.13786 13.4673 3.02783L15.5493 1.01562C15.6297 0.939453 15.7059 0.888672 15.7778 0.863281C15.8498 0.833659 15.9238 0.818848 16 0.818848C16.0762 0.818848 16.1502 0.833659 16.2222 0.863281C16.2941 0.888672 16.3682 0.939453 16.4443 1.01562L18.5327 3.02783C18.6427 3.13786 18.6978 3.2627 18.6978 3.40234C18.6978 3.55046 18.6449 3.67318 18.5391 3.77051C18.4375 3.86361 18.3148 3.91016 18.1709 3.91016C18.0143 3.91016 17.8831 3.85091 17.7773 3.73242L16.876 2.76758L16.5396 2.36768L16.5903 3.30713V9.68018C16.5903 9.83252 16.5311 9.96582 16.4126 10.0801C16.2983 10.1943 16.1608 10.2515 16 10.2515Z" fill="black" fill-opacity="0.5"/>
</svg>
