<svg width="20" height="20" viewBox="0 0 20 20" fill="none" xmlns="http://www.w3.org/2000/svg">
<path d="M3.45312 16.3828H11.5859C11.3594 15.9922 11.1875 15.5703 11.0781 15.125H3.33594C2.64062 15.125 2.25781 14.7578 2.25781 14.0312V6.66406C2.25781 5.94531 2.64062 5.57031 3.33594 5.57031H14.2266C14.9219 5.57031 15.3125 5.94531 15.3125 6.66406V8.88281C15.5391 8.85937 15.7422 8.84374 15.9531 8.84374C16.1562 8.84374 16.3672 8.85937 16.5703 8.88281V4.42187C16.5703 2.8125 15.7578 2 14.125 2H3.45312C1.82031 2 1 2.80468 1 4.42187V13.9609C1 15.5781 1.82031 16.3828 3.45312 16.3828ZM7.25781 8.375H7.71875C7.99219 8.375 8.08594 8.29687 8.08594 8.02343V7.5625C8.08594 7.28906 7.99219 7.20312 7.71875 7.20312H7.25781C6.98438 7.20312 6.89062 7.28906 6.89062 7.5625V8.02343C6.89062 8.29687 6.98438 8.375 7.25781 8.375ZM9.85938 8.375H10.3125C10.5859 8.375 10.6797 8.29687 10.6797 8.02343V7.5625C10.6797 7.28906 10.5859 7.20312 10.3125 7.20312H9.85938C9.57812 7.20312 9.49219 7.28906 9.49219 7.5625V8.02343C9.49219 8.29687 9.57812 8.375 9.85938 8.375ZM12.4531 8.375H12.9141C13.1875 8.375 13.2734 8.29687 13.2734 8.02343V7.5625C13.2734 7.28906 13.1875 7.20312 12.9141 7.20312H12.4531C12.1797 7.20312 12.0859 7.28906 12.0859 7.5625V8.02343C12.0859 8.29687 12.1797 8.375 12.4531 8.375ZM4.66406 10.9297H5.125C5.39844 10.9297 5.48438 10.8515 5.48438 10.5781V10.1172C5.48438 9.84374 5.39844 9.76562 5.125 9.76562H4.66406C4.39062 9.76562 4.29688 9.84374 4.29688 10.1172V10.5781C4.29688 10.8515 4.39062 10.9297 4.66406 10.9297ZM7.25781 10.9297H7.71875C7.99219 10.9297 8.08594 10.8515 8.08594 10.5781V10.1172C8.08594 9.84374 7.99219 9.76562 7.71875 9.76562H7.25781C6.98438 9.76562 6.89062 9.84374 6.89062 10.1172V10.5781C6.89062 10.8515 6.98438 10.9297 7.25781 10.9297ZM9.85938 10.9297H10.3125C10.5859 10.9297 10.6797 10.8515 10.6797 10.5781V10.1172C10.6797 9.84374 10.5859 9.76562 10.3125 9.76562H9.85938C9.57812 9.76562 9.49219 9.84374 9.49219 10.1172V10.5781C9.49219 10.8515 9.57812 10.9297 9.85938 10.9297ZM4.66406 13.4922H5.125C5.39844 13.4922 5.48438 13.4062 5.48438 13.1328V12.6718C5.48438 12.3984 5.39844 12.3203 5.125 12.3203H4.66406C4.39062 12.3203 4.29688 12.3984 4.29688 12.6718V13.1328C4.29688 13.4062 4.39062 13.4922 4.66406 13.4922ZM7.25781 13.4922H7.71875C7.99219 13.4922 8.08594 13.4062 8.08594 13.1328V12.6718C8.08594 12.3984 7.99219 12.3203 7.71875 12.3203H7.25781C6.98438 12.3203 6.89062 12.3984 6.89062 12.6718V13.1328C6.89062 13.4062 6.98438 13.4922 7.25781 13.4922ZM9.85938 13.4922H10.3125C10.5859 13.4922 10.6797 13.4062 10.6797 13.1328V12.6718C10.6797 12.3984 10.5859 12.3203 10.3125 12.3203H9.85938C9.57812 12.3203 9.49219 12.3984 9.49219 12.6718V13.1328C9.49219 13.4062 9.57812 13.4922 9.85938 13.4922ZM15.9531 17.8515C18.1016 17.8515 19.9219 16.0547 19.9219 13.8828C19.9219 11.7031 18.125 9.91406 15.9531 9.91406C13.7734 9.91406 11.9844 11.7109 11.9844 13.8828C11.9844 16.0703 13.7734 17.8515 15.9531 17.8515ZM15.9531 16.3672C15.6641 16.3672 15.4766 16.1797 15.4766 15.8906V14.3594H13.9453C13.6641 14.3594 13.4688 14.1718 13.4688 13.8828C13.4688 13.5937 13.6641 13.4062 13.9453 13.4062H15.4766V11.875C15.4766 11.5937 15.6641 11.3984 15.9531 11.3984C16.2422 11.3984 16.4297 11.5937 16.4297 11.875V13.4062H17.9531C18.2422 13.4062 18.4375 13.5937 18.4375 13.8828C18.4375 14.1718 18.2422 14.3594 17.9531 14.3594H16.4297V15.8906C16.4297 16.1797 16.2422 16.3672 15.9531 16.3672Z" fill="white"/>
</svg>
