<svg width="13" height="15" viewBox="0 0 13 15" fill="none" xmlns="http://www.w3.org/2000/svg">
<path d="M1.75195 14.2949C1.17643 14.2949 0.74056 14.1489 0.444336 13.8569C0.148112 13.5692 0 13.1333 0 12.5493V6.27783C0 5.68962 0.148112 5.25163 0.444336 4.96387C0.74056 4.67188 1.17643 4.52588 1.75195 4.52588H8.02979C8.60954 4.52588 9.04753 4.67188 9.34375 4.96387C9.63997 5.25163 9.78809 5.68962 9.78809 6.27783V12.5493C9.78809 13.1333 9.63997 13.5692 9.34375 13.8569C9.04753 14.1489 8.60954 14.2949 8.02979 14.2949H1.75195ZM1.82812 13.0762H7.95996C8.17155 13.0762 8.32389 13.0296 8.41699 12.9365C8.51432 12.8477 8.56299 12.6932 8.56299 12.4731V6.34766C8.56299 6.1276 8.51432 5.97314 8.41699 5.88428C8.32389 5.79118 8.17155 5.74463 7.95996 5.74463H1.82812C1.62077 5.74463 1.46631 5.79118 1.36475 5.88428C1.26742 5.97314 1.21875 6.1276 1.21875 6.34766V12.4731C1.21875 12.6932 1.26742 12.8477 1.36475 12.9365C1.46631 13.0296 1.62077 13.0762 1.82812 13.0762ZM12.4795 5.94141C12.3568 5.94141 12.251 5.89697 12.1621 5.80811C12.0732 5.71501 12.0288 5.6071 12.0288 5.48438V4.48145C12.0288 4.03711 11.9357 3.64355 11.7495 3.30078C11.5675 2.95378 11.3094 2.68294 10.9751 2.48828C10.645 2.28939 10.2557 2.18994 9.80713 2.18994H9.604V3.00244C9.604 3.23942 9.5236 3.38753 9.36279 3.44678C9.20199 3.50602 9.02848 3.46794 8.84229 3.33252L7.1792 2.10107C7.04378 1.99951 6.97607 1.8916 6.97607 1.77734C6.98031 1.65885 7.04801 1.54671 7.1792 1.44092L8.84229 0.203125C9.02848 0.0677083 9.20199 0.0296224 9.36279 0.0888672C9.5236 0.14388 9.604 0.294108 9.604 0.539551V1.33301H9.80713C10.425 1.33301 10.9688 1.46631 11.4385 1.73291C11.9124 1.99528 12.2806 2.36344 12.543 2.8374C12.8096 3.31136 12.9429 3.85938 12.9429 4.48145V5.48438C12.9429 5.6071 12.8963 5.71501 12.8032 5.80811C12.7144 5.89697 12.6064 5.94141 12.4795 5.94141Z" fill="black" fill-opacity="0.5"/>
</svg>
