<svg width="14" height="14" viewBox="0 0 14 14" fill="none" xmlns="http://www.w3.org/2000/svg">
<path d="M6.11279 3.67529C6.16357 3.53141 6.25033 3.4362 6.37305 3.38965C6.5 3.33887 6.62484 3.33887 6.74756 3.38965C6.87451 3.4362 6.96338 3.53141 7.01416 3.67529L8.26465 7.2998H4.86865L6.11279 3.67529ZM9.22314 11.9146C9.14697 11.9272 9.07292 11.9167 9.00098 11.8828C8.93327 11.849 8.87191 11.8024 8.81689 11.7432C8.76611 11.6882 8.73226 11.6226 8.71533 11.5464L7.81396 7.55371L8.08057 7.70605H5.04639L5.31299 7.55371L4.41162 11.5464C4.382 11.6733 4.31217 11.7707 4.20215 11.8384C4.09212 11.9103 3.97363 11.9357 3.84668 11.9146C3.71549 11.8934 3.61182 11.8257 3.53564 11.7114C3.45947 11.6014 3.4362 11.4829 3.46582 11.356L4.36719 7.38232C4.40951 7.21305 4.49414 7.07129 4.62109 6.95703C4.74805 6.83854 4.89616 6.7793 5.06543 6.7793H8.05518C8.22868 6.7793 8.37891 6.83854 8.50586 6.95703C8.63281 7.07129 8.71745 7.21517 8.75977 7.38867L9.65479 11.356C9.68864 11.4998 9.65267 11.6268 9.54688 11.7368C9.44108 11.8468 9.33317 11.9061 9.22314 11.9146ZM6.55713 13.1143C5.65153 13.1143 4.80306 12.9429 4.01172 12.6001C3.22038 12.2616 2.52425 11.7918 1.92334 11.1909C1.32243 10.5942 0.850586 9.90023 0.507812 9.10889C0.169271 8.31331 0 7.46273 0 6.55713C0 5.65153 0.169271 4.80306 0.507812 4.01172C0.850586 3.21615 1.32243 2.5179 1.92334 1.91699C2.52425 1.31608 3.22038 0.846354 4.01172 0.507812C4.80306 0.169271 5.65153 0 6.55713 0C7.46273 0 8.3112 0.169271 9.10254 0.507812C9.89811 0.846354 10.5964 1.31608 11.1973 1.91699C11.7982 2.5179 12.2679 3.21615 12.6064 4.01172C12.9492 4.80306 13.1206 5.65153 13.1206 6.55713C13.1206 7.46273 12.9492 8.31331 12.6064 9.10889C12.2679 9.90023 11.7982 10.5942 11.1973 11.1909C10.5964 11.7918 9.89811 12.2616 9.10254 12.6001C8.3112 12.9429 7.46273 13.1143 6.55713 13.1143ZM6.55713 11.8193C7.28499 11.8193 7.96631 11.6818 8.60107 11.4067C9.23584 11.1359 9.79443 10.7593 10.2769 10.2769C10.7635 9.79443 11.1423 9.23584 11.4131 8.60107C11.6839 7.96631 11.8193 7.28499 11.8193 6.55713C11.8193 5.82926 11.6839 5.14795 11.4131 4.51318C11.1423 3.87419 10.7635 3.31559 10.2769 2.8374C9.79443 2.35498 9.23584 1.97835 8.60107 1.70752C7.96631 1.43245 7.28499 1.29492 6.55713 1.29492C5.8335 1.29492 5.15218 1.43245 4.51318 1.70752C3.87842 1.97835 3.31982 2.35498 2.8374 2.8374C2.35498 3.31559 1.97624 3.87419 1.70117 4.51318C1.43034 5.14795 1.29492 5.82926 1.29492 6.55713C1.29492 7.28499 1.43034 7.96631 1.70117 8.60107C1.97624 9.23584 2.35498 9.79443 2.8374 10.2769C3.31982 10.7593 3.87842 11.1359 4.51318 11.4067C5.15218 11.6818 5.8335 11.8193 6.55713 11.8193Z" fill="white" fill-opacity="0.85"/>
</svg>
