<svg width="11" height="11" viewBox="0 0 11 11" fill="none" xmlns="http://www.w3.org/2000/svg">
<path d="M9.03418 3.72754C8.0083 3.72754 7.17041 2.88428 7.17041 1.86377C7.17041 0.843262 8.0083 0 9.03418 0C10.0493 0 10.8926 0.843262 10.8926 1.86377C10.8926 2.88428 10.0493 3.72754 9.03418 3.72754ZM0 8.00293V3.81885C0 2.9165 0.0805664 2.14844 0.628418 1.60059C1.17627 1.05273 1.94971 0.966797 2.85205 0.966797H6.56348C6.48291 1.20312 6.43994 1.46094 6.45068 1.72949C6.44531 1.76709 6.43994 1.79395 6.43994 1.83154H2.73389C2.16992 1.83154 1.58447 1.90674 1.25684 2.229C0.93457 2.55664 0.864746 3.13135 0.864746 3.70068V8.15332C0.864746 8.70654 0.93457 9.28125 1.25684 9.60352C1.58447 9.93115 2.16455 10.0063 2.71777 10.0063H7.18652C7.73975 10.0063 8.31982 9.93115 8.64209 9.60352C8.96973 9.28125 9.03955 8.70654 9.03955 8.15332V4.43652C9.07715 4.43115 9.104 4.43115 9.1416 4.42041C9.41016 4.43115 9.66797 4.38818 9.9043 4.30762V8.00293C9.9043 8.92139 9.82373 9.68945 9.27588 10.2373C8.72803 10.7852 7.95459 10.8711 7.03613 10.8711H2.86279C1.94971 10.8711 1.17627 10.7852 0.628418 10.2373C0.0805664 9.68945 0 8.92139 0 8.00293Z" fill="#007AFF"/>
</svg>
