<svg width="20" height="20" viewBox="0 0 20 20" fill="none" xmlns="http://www.w3.org/2000/svg">
<path d="M15.1216 10.1318C15.1216 10.3394 15.0386 10.522 14.8809 10.6797L8.30664 17.1128C8.15723 17.2622 7.97461 17.3369 7.75879 17.3369C7.33545 17.3369 7.00342 17.0132 7.00342 16.5815C7.00342 16.3657 7.08643 16.1831 7.21924 16.042L13.2622 10.1318L7.21924 4.22168C7.08643 4.08057 7.00342 3.88965 7.00342 3.68213C7.00342 3.25049 7.33545 2.92676 7.75879 2.92676C7.97461 2.92676 8.15723 3.00146 8.30664 3.14258L14.8809 9.58398C15.0386 9.7334 15.1216 9.92432 15.1216 10.1318Z" fill="black" fill-opacity="0.26"/>
</svg>
