<svg width="20" height="20" viewBox="0 0 20 20" fill="none" xmlns="http://www.w3.org/2000/svg">
<path d="M10.3042 13.1558C9.94727 13.1558 9.64844 12.8652 9.64844 12.5166V4.06641L9.69824 2.82959L9.2334 3.31934L7.94678 4.68896C7.83057 4.82178 7.64795 4.88818 7.49023 4.88818C7.1416 4.88818 6.89258 4.63916 6.89258 4.30713C6.89258 4.12451 6.96729 3.9917 7.0918 3.86719L9.82275 1.22754C9.99707 1.06152 10.1382 1.01172 10.3042 1.01172C10.4785 1.01172 10.6196 1.06152 10.7856 1.22754L13.5249 3.86719C13.6494 3.9917 13.7158 4.12451 13.7158 4.30713C13.7158 4.63916 13.4585 4.88818 13.1099 4.88818C12.9521 4.88818 12.7778 4.82178 12.6616 4.68896L11.3833 3.31934L10.9185 2.82959L10.9683 4.06641V12.5166C10.9683 12.8652 10.6611 13.1558 10.3042 13.1558ZM5.54785 19.6636C3.81299 19.6636 2.94141 18.8086 2.94141 17.0903V8.89746C2.94141 7.1792 3.81299 6.32422 5.54785 6.32422H8.08789V7.66064H5.56445C4.73438 7.66064 4.27783 8.10059 4.27783 8.96387V17.0239C4.27783 17.8872 4.73438 18.3271 5.56445 18.3271H15.0439C15.8657 18.3271 16.3389 17.8872 16.3389 17.0239V8.96387C16.3389 8.10059 15.8657 7.66064 15.0439 7.66064H12.5205V6.32422H15.0688C16.8037 6.32422 17.6753 7.1875 17.6753 8.89746V17.0903C17.6753 18.8003 16.8037 19.6636 15.0688 19.6636H5.54785Z" fill="black" fill-opacity="0.26"/>
</svg>
